<svg xmlns="http://www.w3.org/2000/svg" xmlns:xlink="http://www.w3.org/1999/xlink" version="1.1" x="0px" y="0px" viewBox="0 0 100 125" enable-background="new 0 0 100 100" xml:space="preserve"><path d="M71,25v36c0,0.552-0.448,1-1,1h-0.454L69,59.963V26H39v9.671l-2,0.536V25c0-0.552,0.448-1,1-1h32C70.552,24,71,24.448,71,25  z M67,52.499V29c0-0.552-0.448-1-1-1H42c-0.552,0-1,0.448-1,1v6.135l2-0.536V30h22v15.035L67,52.499z M69.08,67.986  c0.145,0.542-0.18,1.083-0.707,1.226l-30.91,8.282c-0.531,0.145-1.082-0.173-1.224-0.707L26.92,42.013  c-0.144-0.535,0.177-1.083,0.707-1.225l30.91-8.282c0.533-0.145,1.082,0.174,1.225,0.707L69.08,67.986z M66.889,67.539l-8.8-32.842  l-28.978,7.765l8.8,32.843L66.889,67.539z M56.934,38.112l6.211,23.182c0.144,0.533-0.172,1.082-0.707,1.226L39.256,68.73  c-0.527,0.146-1.081-0.172-1.225-0.707L31.82,44.842c-0.143-0.533,0.173-1.082,0.707-1.225l23.182-6.212  C56.238,37.26,56.791,37.579,56.934,38.112z M60.955,60.846l-5.693-21.25L34.01,45.29l5.694,21.25L60.955,60.846z"/><text x="0" y="115" fill="#000000" font-size="5px" font-weight="bold" font-family="'Helvetica Neue', Helvetica, Arial-Unicode, Arial, Sans-serif">Created by Setyo Ari Wibowo</text><text x="0" y="120" fill="#000000" font-size="5px" font-weight="bold" font-family="'Helvetica Neue', Helvetica, Arial-Unicode, Arial, Sans-serif">from the Noun Project</text></svg>